<?xml version="1.0" encoding="UTF-8" standalone="no"?>
<!-- Created with Inkscape (http://www.inkscape.org/) -->

<svg
   width="120mm"
   height="120mm"
   viewBox="0 0 120 120"
   version="1.1"
   id="svg827"
   inkscape:version="1.2.1 (9c6d41e410, 2022-07-14)"
   sodipodi:docname="drawing2.svg"
   xmlns:inkscape="http://www.inkscape.org/namespaces/inkscape"
   xmlns:sodipodi="http://sodipodi.sourceforge.net/DTD/sodipodi-0.dtd"
   xmlns="http://www.w3.org/2000/svg"
   xmlns:svg="http://www.w3.org/2000/svg">
  <sodipodi:namedview
     id="namedview829"
     pagecolor="#ffffff"
     bordercolor="#000000"
     borderopacity="0.25"
     inkscape:showpageshadow="2"
     inkscape:pageopacity="0.0"
     inkscape:pagecheckerboard="0"
     inkscape:deskcolor="#d1d1d1"
     inkscape:document-units="mm"
     showgrid="false"
     inkscape:zoom="0.4187009"
     inkscape:cx="-4.7766795"
     inkscape:cy="370.19266"
     inkscape:window-width="1366"
     inkscape:window-height="699"
     inkscape:window-x="0"
     inkscape:window-y="0"
     inkscape:window-maximized="1"
     inkscape:current-layer="layer1" />
  <defs
     id="defs824" />
  <g
     inkscape:label="Layer 1"
     inkscape:groupmode="layer"
     id="layer1">
    <path
       d="M 66.136382,72.052167 H 42.554401 c -1.563143,0 -3.062769,0.617935 -4.167748,1.71908 -1.104984,1.101135 -1.726783,2.594976 -1.726783,4.15235 0,1.557374 0.621792,3.051222 1.726783,4.152359 1.104979,1.10113 2.604605,1.719071 4.167748,1.719071 h 23.581981 c 1.565071,0 3.064697,-0.617934 4.169682,-1.719071 1.104985,-1.101137 1.726777,-2.594985 1.726777,-4.152359 0,-1.557374 -0.621792,-3.051215 -1.726777,-4.15235 -1.104985,-1.101138 -2.604611,-1.71908 -4.169682,-1.71908 z M 89.718361,13.337856 H 82.763119 C 81.546485,9.9112454 79.296091,6.9447277 76.319948,4.8406419 73.341883,2.738477 69.786293,1.6046138 66.136382,1.5949879 H 54.347319 c -3.649914,0.00946 -7.205495,1.1434891 -10.183566,3.245654 -2.976144,2.1040858 -5.226537,5.0706035 -6.443171,8.4972141 h -6.955243 c -4.691366,0 -9.190237,1.855755 -12.507112,5.159158 -3.316877,3.303402 -5.180337,7.783012 -5.180337,12.455133 v 70.457193 c 0,4.67212 1.86346,9.15173 5.180337,12.45512 3.316875,3.30341 7.815746,5.15916 12.507112,5.15916 h 58.953022 c 4.691374,0 9.190239,-1.85575 12.507109,-5.15916 3.31688,-3.30339 5.18034,-7.783 5.18034,-12.45512 V 30.952147 c 0,-4.672121 -1.86346,-9.151731 -5.18034,-12.455133 -3.31687,-3.303403 -7.815735,-5.159158 -12.507109,-5.159158 z m -41.267501,5.87143 c 0,-1.557373 0.621792,-3.051222 1.726777,-4.152359 1.104984,-1.101128 2.60461,-1.719071 4.169682,-1.719071 h 11.789063 c 1.565071,0 3.064697,0.617936 4.169682,1.719071 1.104985,1.101137 1.726777,2.594986 1.726777,4.152359 v 5.87143 H 48.45086 Z m 47.163961,82.200054 c 0,1.55736 -0.621791,3.0512 -1.726777,4.15234 -1.104985,1.10114 -2.604611,1.71909 -4.169683,1.71909 H 30.765339 c -1.565072,0 -3.064698,-0.61794 -4.169676,-1.71909 -1.104985,-1.10114 -1.726784,-2.59498 -1.726784,-4.15234 V 30.952147 c 0,-1.557374 0.621791,-3.051223 1.726784,-4.152351 1.104978,-1.101137 2.604604,-1.71908 4.169676,-1.71908 h 5.894531 v 5.871431 c 0,1.557374 0.621792,3.051222 1.726783,4.152352 1.104979,1.101136 2.604605,1.719077 4.167748,1.719077 H 77.9293 c 1.563143,0 3.062769,-0.617934 4.167753,-1.719077 1.104979,-1.10113 1.726777,-2.594978 1.726777,-4.152352 v -5.871431 h 5.894531 c 1.565072,0 3.064698,0.617936 4.169683,1.71908 1.104979,1.101128 1.726777,2.594977 1.726777,4.152351 z M 77.9293,48.566439 H 42.554401 c -1.563143,0 -3.062769,0.617934 -4.167748,1.719077 -1.104984,1.101138 -1.726783,2.594985 -1.726783,4.15236 0,1.557373 0.621792,3.051215 1.726783,4.152351 1.104979,1.101136 2.604605,1.71908 4.167748,1.71908 H 77.9293 c 1.563143,0 3.062769,-0.617937 4.167753,-1.71908 1.104979,-1.101136 1.726777,-2.594978 1.726777,-4.152351 0,-1.557375 -0.62179,-3.051222 -1.726777,-4.15236 -1.104984,-1.101129 -2.60461,-1.719077 -4.167753,-1.719077 z"
       fill="#000000"
       id="path16"
       style="stroke-width:1.92506;fill:#ffffff;fill-opacity:1" />
  </g>
</svg>
