<?xml version="1.0" encoding="UTF-8" standalone="no"?>
<!-- Created with Inkscape (http://www.inkscape.org/) -->

<svg
   width="120mm"
   height="120mm"
   viewBox="0 0 120 120"
   version="1.1"
   id="svg999"
   inkscape:version="1.2.1 (9c6d41e410, 2022-07-14)"
   sodipodi:docname="drawing3.svg"
   xmlns:inkscape="http://www.inkscape.org/namespaces/inkscape"
   xmlns:sodipodi="http://sodipodi.sourceforge.net/DTD/sodipodi-0.dtd"
   xmlns="http://www.w3.org/2000/svg"
   xmlns:svg="http://www.w3.org/2000/svg">
  <sodipodi:namedview
     id="namedview1001"
     pagecolor="#ffffff"
     bordercolor="#000000"
     borderopacity="0.25"
     inkscape:showpageshadow="2"
     inkscape:pageopacity="0.0"
     inkscape:pagecheckerboard="0"
     inkscape:deskcolor="#d1d1d1"
     inkscape:document-units="mm"
     showgrid="false"
     inkscape:zoom="0.4187009"
     inkscape:cx="397.65857"
     inkscape:cy="370.19266"
     inkscape:window-width="1366"
     inkscape:window-height="699"
     inkscape:window-x="0"
     inkscape:window-y="0"
     inkscape:window-maximized="1"
     inkscape:current-layer="layer1" />
  <defs
     id="defs996" />
  <g
     inkscape:label="Layer 1"
     inkscape:groupmode="layer"
     id="layer1">
    <path
       d="M 85.373489,28.312152 63.23447,5.9761464 C 62.866758,5.6103474 62.429656,5.3214086 61.949395,5.1244349 61.467241,4.9274602 60.953221,4.8279801 60.433558,4.831809 c -1.035567,0.00366 -2.027982,0.4145819 -2.76151,1.1443719 L 1.6369352,61.814314 c -0.73539904,0.739155 -1.14812984,1.739073 -1.14812984,2.78215 0,1.041197 0.4127372,2.042994 1.14812984,2.78215 L 23.971064,89.712736 c 0.369556,0.365799 0.806693,0.654737 1.286954,0.851718 0.48024,0.196975 0.996172,0.296383 1.515829,0.292696 1.033696,-0.0037 2.026111,-0.414582 2.761516,-1.144378 L 40.70336,78.544775 74.205492,45.042649 85.373489,33.874645 c 0.735406,-0.739155 1.14813,-1.73908 1.14813,-2.78215 0,-1.041198 -0.412737,-2.041122 -1.14813,-2.780271 z M 71.404582,36.677366 68.60179,33.874575 c -0.739157,-0.733527 -1.739081,-1.146251 -2.78215,-1.146251 -1.041199,0 -2.042994,0.412739 -2.782151,1.146251 -0.369557,0.367713 -0.662253,0.804814 -0.86297,1.285083 -0.200733,0.480239 -0.303899,0.996166 -0.303899,1.517708 0,0.521506 0.103156,1.035567 0.303899,1.517708 0.200731,0.480239 0.493428,0.917376 0.86297,1.283204 l 2.802792,2.802784 -5.603704,5.5643 -8.365212,-8.367084 c -0.756039,-0.645378 -1.725949,-0.983042 -2.720244,-0.94552 -0.992415,0.03971 -1.934183,0.450249 -2.637696,1.153753 -0.703518,0.701605 -1.114357,1.643401 -1.153759,2.637697 -0.03758,0.99242 0.300141,1.964204 0.947398,2.71837 l 8.365212,8.365213 -5.603696,5.603695 -2.761516,-2.800911 c -0.742908,-0.742908 -1.752213,-1.161261 -2.802791,-1.161261 -1.050572,0 -2.058004,0.418339 -2.800913,1.161261 -0.742906,0.742908 -1.16126,1.75034 -1.16126,2.800911 0,1.052451 0.418339,2.059883 1.16126,2.802792 l 2.800913,2.76151 -5.564302,5.603702 -8.404608,-8.365212 c -0.739155,-0.735405 -1.739079,-1.14813 -2.782149,-1.14813 -1.043077,0 -2.042994,0.412737 -2.78215,1.14813 -0.735407,0.739157 -1.146259,1.739073 -1.146259,2.78215 0,1.041198 0.410824,2.042994 1.146259,2.782151 l 8.365212,8.365212 -5.562429,5.603696 -16.7717,-16.771699 50.23443,-50.234422 16.771701,16.771692 z"
       fill="#ff3343"
       id="path18"
       style="stroke-width:1.87603" />
    <path
       d="m 43.896364,119.26954 h 71.030216 c 1.04682,0 2.0505,-0.4165 2.78965,-1.15564 0.74104,-0.74102 1.15752,-1.7447 1.15752,-2.78964 V 44.292163 c 0,-1.04495 -0.4165,-2.048625 -1.15752,-2.789653 -0.73915,-0.739157 -1.74283,-1.155631 -2.78965,-1.155631 H 91.249213 c -1.044949,0 -2.050496,0.416495 -2.789653,1.155631 -0.739157,0.741028 -1.155638,1.744703 -1.155638,2.789653 V 87.69972 H 43.896364 c -1.046821,0 -2.050496,0.416497 -2.789653,1.15564 -0.741036,0.741027 -1.155632,1.744703 -1.155632,2.79153 v 23.67737 c 0,1.04494 0.414583,2.04862 1.155632,2.78964 0.739157,0.73916 1.742832,1.15564 2.789653,1.15564 z m 3.945291,-23.677359 h 7.892452 v 3.947168 c 0,1.046811 0.416497,2.050491 1.155632,2.789641 0.741036,0.74103 1.744711,1.15564 2.791531,1.15564 1.046829,0 2.050503,-0.41457 2.78966,-1.15564 0.741028,-0.73915 1.155631,-1.74283 1.155631,-2.789641 v -3.947168 h 7.892454 v 3.947168 c 0,1.046811 0.416497,2.050491 1.155639,2.789641 0.741027,0.74103 1.744704,1.15564 2.79153,1.15564 1.044943,0 2.048624,-0.41457 2.789653,-1.15564 0.739157,-0.73915 1.155632,-1.74283 1.155632,-2.789641 v -3.947168 h 7.892453 v 3.947168 c 0,1.046811 0.416496,2.050491 1.155638,2.789641 0.739157,0.74103 1.744704,1.15564 2.789653,1.15564 1.046827,0 2.050503,-0.41457 2.79153,-1.15564 0.739157,-0.73915 1.155632,-1.74283 1.155632,-2.789641 v -3.947168 h 3.945283 c 1.046842,0 2.050522,-0.414582 2.791542,-1.155638 0.73915,-0.739157 1.15564,-1.742831 1.15564,-2.789653 0,-1.046827 -0.4165,-2.050503 -1.15564,-2.79153 -0.74102,-0.739157 -1.7447,-1.15564 -2.791542,-1.15564 h -3.945283 v -7.890574 h 3.945283 c 1.046842,0 2.050522,-0.416497 2.791542,-1.157511 0.73915,-0.739156 1.15564,-1.742832 1.15564,-2.789652 0,-1.046827 -0.4165,-2.050502 -1.15564,-2.789659 -0.74102,-0.741028 -1.7447,-1.155632 -2.791542,-1.155632 H 95.196375 V 64.02424 h 3.945283 c 1.046842,0 2.050522,-0.416498 2.791542,-1.155632 0.73915,-0.741036 1.15564,-1.744712 1.15564,-2.791532 0,-1.046828 -0.4165,-2.050502 -1.15564,-2.789659 -0.74102,-0.741028 -1.7447,-1.155632 -2.791542,-1.155632 H 95.196375 V 48.239331 H 110.98129 V 111.3771 H 47.841655 Z"
       fill="#ff3343"
       id="path20"
       style="stroke-width:1.87603" />
  </g>
</svg>
