<?xml version="1.0" encoding="UTF-8" standalone="no"?>
<!-- Created with Inkscape (http://www.inkscape.org/) -->

<svg
   width="120mm"
   height="120mm"
   viewBox="0 0 120 120"
   version="1.1"
   id="svg312"
   inkscape:version="1.2.1 (9c6d41e410, 2022-07-14)"
   sodipodi:docname="drawing1.svg"
   xmlns:inkscape="http://www.inkscape.org/namespaces/inkscape"
   xmlns:sodipodi="http://sodipodi.sourceforge.net/DTD/sodipodi-0.dtd"
   xmlns="http://www.w3.org/2000/svg"
   xmlns:svg="http://www.w3.org/2000/svg">
  <sodipodi:namedview
     id="namedview314"
     pagecolor="#ffffff"
     bordercolor="#000000"
     borderopacity="0.25"
     inkscape:showpageshadow="2"
     inkscape:pageopacity="0.0"
     inkscape:pagecheckerboard="0"
     inkscape:deskcolor="#d1d1d1"
     inkscape:document-units="mm"
     showgrid="false"
     inkscape:zoom="0.4187009"
     inkscape:cx="777.40459"
     inkscape:cy="410.79444"
     inkscape:window-width="1314"
     inkscape:window-height="679"
     inkscape:window-x="26"
     inkscape:window-y="23"
     inkscape:window-maximized="0"
     inkscape:current-layer="layer1" />
  <defs
     id="defs309" />
  <g
     inkscape:label="Layer 1"
     inkscape:groupmode="layer"
     id="layer1">
    <path
       d="m 88.255668,71.952977 c -0.225391,0.242239 -0.425604,0.508003 -0.597206,0.792324 -0.196843,0.252349 -0.348226,0.536614 -0.447474,0.84111 -0.151383,0.296092 -0.252349,0.613989 -0.297743,0.942044 -0.201867,0.948768 -0.09753,1.936226 0.297743,2.822752 0.223738,0.613989 0.578703,1.172507 1.042969,1.635113 0.464259,0.462606 1.024474,0.817561 1.641847,1.039611 0.588749,0.277589 1.236424,0.413842 1.887442,0.396992 0.645972,0.0071 1.288578,-0.111014 1.889128,-0.348225 0.593836,-0.285983 1.145592,-0.652705 1.640161,-1.088398 0.460953,-0.462606 0.824287,-1.012693 1.073252,-1.614926 0.247263,-0.603945 0.371752,-1.249882 0.368382,-1.902581 0.01653,-0.64934 -0.119407,-1.293627 -0.398709,-1.8824 -0.250632,-0.600576 -0.603946,-1.152321 -1.042975,-1.633436 -0.46426,-0.459237 -1.014378,-0.822602 -1.619975,-1.069887 -0.605599,-0.245609 -1.254932,-0.371752 -1.909315,-0.36673 -0.649334,0.0071 -1.290256,0.141274 -1.887442,0.39534 -0.61062,0.235499 -1.167459,0.590466 -1.640161,1.041289 z M 67.77806,92.556753 c -0.196844,0.254001 -0.348226,0.538329 -0.447476,0.842787 -0.186733,0.289353 -0.321268,0.607252 -0.396993,0.940358 -0.149729,0.635881 -0.149729,1.296991 0,1.932872 l 0.297745,0.891572 0.447475,0.891573 0.595488,0.741856 c 0.977369,0.928583 2.277722,1.445019 3.628537,1.436609 0.654384,0.005 1.302038,-0.12112 1.907636,-0.36673 0.605597,-0.247257 1.157361,-0.610619 1.621655,-1.069886 0.439081,-0.481108 0.792323,-1.032879 1.042974,-1.633428 0.309507,-0.750268 0.428973,-1.566142 0.348227,-2.371927 -0.0791,-0.807464 -0.358336,-1.582965 -0.80915,-2.257534 -0.452497,-0.676247 -1.063161,-1.229696 -1.779781,-1.614927 -0.716627,-0.383513 -1.517358,-0.587096 -2.331554,-0.592119 -1.315493,0.01844 -2.57547,0.531592 -3.529282,1.436611 z m 20.477608,-0.792326 c -0.452497,0.471001 -0.807463,1.027838 -1.044654,1.635113 -0.417211,0.896622 -0.555116,1.89754 -0.396993,2.87323 l 0.297745,0.891572 c 0.109362,0.314592 0.259086,0.615706 0.447473,0.891573 0.183365,0.259088 0.381861,0.508002 0.59549,0.741856 0.472715,0.452497 1.0312,0.805787 1.640161,1.041287 0.595488,0.262392 1.239794,0.397002 1.889126,0.397002 0.651021,0 1.293621,-0.13461 1.889128,-0.397002 0.602228,-0.250628 1.157362,-0.602222 1.640162,-1.041287 0.477739,-0.454214 0.861291,-0.999233 1.125401,-1.603152 0.265763,-0.603944 0.405384,-1.253247 0.415493,-1.912678 0.01653,-0.649334 -0.119407,-1.295305 -0.398708,-1.882401 -0.250631,-0.600573 -0.603944,-1.152312 -1.042977,-1.635113 -0.482761,-0.437365 -1.037927,-0.788956 -1.640161,-1.039606 -0.595488,-0.262392 -1.238107,-0.396992 -1.889126,-0.396992 -0.649335,0 -1.293622,0.134596 -1.887444,0.396992 -0.610621,0.2355 -1.167459,0.58875 -1.640162,1.039606 z M 67.330591,77.351207 c 0.237217,0.607314 0.590465,1.164094 1.042976,1.635113 0.953811,0.905032 2.213791,1.418108 3.529282,1.436616 0.814197,-0.0051 1.614926,-0.208604 2.331553,-0.592118 0.716621,-0.385229 1.327268,-0.938674 1.779785,-1.614927 0.450843,-0.674567 0.730078,-1.450071 0.809146,-2.255849 0.08075,-0.807463 -0.03879,-1.623339 -0.348227,-2.373606 -0.250631,-0.600574 -0.603943,-1.15232 -1.042974,-1.633433 -0.464324,-0.459237 -1.016055,-0.822603 -1.621654,-1.06989 -0.605597,-0.245609 -1.253252,-0.371751 -1.907635,-0.366727 -1.315493,0.01845 -2.57547,0.53159 -3.529282,1.436609 -0.689714,0.696441 -1.155683,1.579603 -1.342411,2.541832 -0.185018,0.960544 -0.08075,1.954735 0.299459,2.856397 z m 20.925077,-25.21136 c -0.439083,0.481109 -0.792325,1.034565 -1.044654,1.633429 -0.380206,0.903354 -0.484478,1.897539 -0.299461,2.858082 0.186734,0.960552 0.654382,1.845392 1.344089,2.541833 0.472716,0.450843 1.029516,0.804098 1.640162,1.039606 0.593836,0.262393 1.238108,0.398708 1.887442,0.398708 0.651019,0 1.293626,-0.136249 1.889128,-0.398708 0.602227,-0.250633 1.157368,-0.602228 1.640161,-1.039606 0.460953,-0.462607 0.824287,-1.011015 1.073252,-1.614928 0.247263,-0.603943 0.371752,-1.249889 0.368382,-1.902586 0.01653,-0.649335 -0.119407,-1.293621 -0.398709,-1.882401 -0.250632,-0.598859 -0.603946,-1.152314 -1.042975,-1.633429 -0.69812,-0.68803 -1.58633,-1.15232 -2.550238,-1.33904 -0.963913,-0.185082 -1.961462,-0.08075 -2.866494,0.297743 -0.61062,0.237217 -1.167459,0.590467 -1.640161,1.04129 z M 27.1714,55.655677 v 39.626264 c 0,1.313813 0.523706,2.573793 1.455621,3.502375 0.932118,0.928585 2.1963,1.450064 3.514481,1.450064 h 19.880761 c 1.319027,0 2.582368,-0.521479 3.514314,-1.450064 0.931946,-0.928582 1.455119,-2.188562 1.455119,-3.502375 V 55.655677 c 0,-1.313808 -0.523197,-2.572108 -1.455119,-3.50237 -0.931946,-0.928583 -2.195287,-1.450071 -3.514314,-1.450071 H 32.141502 c -1.318181,0 -2.582363,0.521482 -3.514481,1.450071 -0.931946,0.930262 -1.455621,2.188562 -1.455621,3.50237 z m 19.88076,4.954125 V 90.327815 H 37.111775 V 60.609802 Z M 7.2906412,45.74911 v 59.4394 c 0,3.94143 1.5708525,7.71969 4.3672008,10.50711 2.796347,2.78743 6.588901,4.3519 10.543283,4.3519 h 79.522355 c 3.95489,0 7.74829,-1.56447 10.54413,-4.3519 2.79584,-2.78742 4.36703,-6.56568 4.36703,-10.50711 v -59.4394 c 0,-3.939746 -1.57119,-7.719685 -4.36703,-10.507118 -2.79584,-2.78575 -6.58924,-4.351891 -10.54413,-4.351891 H 22.201125 c -3.954382,0 -7.746936,1.566141 -10.543283,4.351891 C 8.8614937,38.029425 7.2906412,41.809364 7.2906412,45.74911 Z M 101.72348,40.796672 c 1.31886,0 2.58221,0.52148 3.51583,1.450065 0.93195,0.930267 1.45512,2.190245 1.45512,3.502373 v 59.4394 c 0,1.3138 -0.52319,2.57378 -1.45512,3.50238 -0.93362,0.92857 -2.19697,1.45006 -3.51583,1.45006 H 22.201125 c -1.318179,0 -2.582369,-0.52148 -3.514314,-1.45006 -0.932118,-0.9286 -1.455788,-2.18858 -1.455788,-3.50238 v -59.4394 c 0,-1.312128 0.523642,-2.572106 1.455788,-3.502373 0.931945,-0.928585 2.196135,-1.450065 3.514314,-1.450065 z m -33.94542,12.1355 c -0.196844,0.252349 -0.348226,0.538331 -0.447476,0.841104 -0.151382,0.29609 -0.252347,0.61399 -0.297744,0.942042 -0.149729,0.635881 -0.149729,1.296989 0,1.931186 l 0.297744,0.891572 0.447476,0.891573 0.595487,0.743542 c 0.953811,0.905032 2.213792,1.418108 3.529283,1.436611 0.814197,-0.0051 1.614928,-0.20689 2.331555,-0.592119 0.716619,-0.38523 1.327265,-0.938681 1.779782,-1.613249 0.450844,-0.676247 0.73008,-1.45007 0.809148,-2.257533 0.08075,-0.807466 -0.03879,-1.621656 -0.348226,-2.373607 -0.250634,-0.598857 -0.603945,-1.152313 -1.042976,-1.633428 -0.464323,-0.459238 -1.016056,-0.822602 -1.621653,-1.068204 -0.605599,-0.247262 -1.253254,-0.371751 -1.907636,-0.36838 -1.315492,0.01845 -2.575471,0.531589 -3.529282,1.436609 z"
       fill="#ff3343"
       id="path12"
       style="stroke-width:1.68222" />
    <path
       d="m 27.632328,2.3984247 c -0.264429,0.2691334 -0.473224,0.587096 -0.614371,0.9369885 -0.141149,0.3482264 -0.211975,0.7216752 -0.208415,1.098487 l 0.23283,17.1670088 c 0.0062,0.376836 0.08749,0.748589 0.238232,1.093438 0.150557,0.346509 0.367874,0.657745 0.639416,0.918493 0.268497,0.265764 0.586588,0.47437 0.935984,0.615707 0.349244,0.141273 0.723017,0.211975 1.099829,0.208605 l 11.457568,-0.15647 44.25169,-0.600575 c 0.376836,-0.0051 0.748581,-0.08749 1.093437,-0.237215 0.344857,-0.151385 0.657746,-0.368383 0.918487,-0.639244 l 8.46659,-8.700418 c 0.529875,-0.543354 0.822603,-1.275118 0.812513,-2.035482 -0.01206,-0.758678 -0.322986,-1.483711 -0.866339,-2.011926 L 87.389329,1.5892772 C 87.118479,1.2931855 86.787102,1.0594021 86.418688,0.8995696 86.050308,0.74144646 85.653282,0.66070001 85.25123,0.66572317 L 41.123191,1.3857073 29.745021,1.4194053 c -0.380843,0.015259 -0.756155,0.095882 -1.110426,0.2372163 -0.178978,0.1446439 -0.339836,0.3095066 -0.479266,0.4928703 -0.102622,0.085766 -0.196144,0.1817118 -0.27956,0.2859824 z m 56.604525,4.1130144 5.807009,5.6505589 -5.65056,5.807009 L 44.190039,18.514078 44.034586,7.0565083 Z M 38.32617,7.1338857 38.481432,18.591453 32.752313,18.648679 32.59756,7.2314836 Z"
       fill="#ff3343"
       id="path14"
       style="stroke-width:1.68222" />
  </g>
</svg>
