<?xml version="1.0" encoding="UTF-8" standalone="no"?>
<!-- Created with Inkscape (http://www.inkscape.org/) -->

<svg
   width="120mm"
   height="120mm"
   viewBox="0 0 120 120"
   version="1.1"
   id="svg1178"
   inkscape:version="1.2.1 (9c6d41e410, 2022-07-14)"
   sodipodi:docname="drawing5.svg"
   xmlns:inkscape="http://www.inkscape.org/namespaces/inkscape"
   xmlns:sodipodi="http://sodipodi.sourceforge.net/DTD/sodipodi-0.dtd"
   xmlns="http://www.w3.org/2000/svg"
   xmlns:svg="http://www.w3.org/2000/svg">
  <sodipodi:namedview
     id="namedview1180"
     pagecolor="#ffffff"
     bordercolor="#000000"
     borderopacity="0.25"
     inkscape:showpageshadow="2"
     inkscape:pageopacity="0.0"
     inkscape:pagecheckerboard="0"
     inkscape:deskcolor="#d1d1d1"
     inkscape:document-units="mm"
     showgrid="false"
     inkscape:zoom="0.4187009"
     inkscape:cx="-4.7766795"
     inkscape:cy="370.19266"
     inkscape:window-width="1366"
     inkscape:window-height="699"
     inkscape:window-x="0"
     inkscape:window-y="0"
     inkscape:window-maximized="1"
     inkscape:current-layer="layer1" />
  <defs
     id="defs1175" />
  <g
     inkscape:label="Layer 1"
     inkscape:groupmode="layer"
     id="layer1">
    <path
       d="m 121.09639,22.949816 c -4.57533,1.991677 -9.41068,3.3084 -14.36221,3.911423 5.22262,-3.136875 9.13405,-8.06628 11.01508,-13.88641 -4.90728,2.937729 -10.27926,5.006856 -15.88362,6.118871 -3.74546,-4.082928 -8.735715,-6.799345 -14.179633,-7.723274 -5.449458,-0.929449 -11.048275,-0.01106 -15.922354,2.605783 -4.874078,2.616844 -8.741256,6.782762 -11.00401,11.850467 -2.262775,5.067726 -2.788348,10.743995 -1.49381,16.143666 C 49.340653,41.46683 39.636763,38.86663 30.779332,34.346641 21.916358,29.826632 14.104573,23.48093 7.841841,15.729993 5.645476,19.586088 4.4891949,23.951195 4.4947154,28.388192 c -0.00548,4.127215 1.0013798,8.188019 2.9322085,11.828366 1.9308288,3.640326 4.7302171,6.744038 8.1437321,9.028936 C 11.603905,49.140948 7.7201232,48.067006 4.251302,46.13072 v 0.30424 c 0.027183,5.781405 2.047089,11.369162 5.7039334,15.828302 3.6569486,4.45914 8.7412546,7.507524 14.3787996,8.636142 -2.168701,0.663892 -4.425935,1.012462 -6.694252,1.040063 -1.571177,-0.01659 -3.136876,-0.161007 -4.685971,-0.425937 1.604424,4.968111 4.713636,9.316616 8.890637,12.425849 4.17698,3.114752 9.217042,4.840872 14.417525,4.945987 -8.779982,6.943206 -19.623549,10.732932 -30.7935431,10.760597 -2.036006,0.01107 -4.0663459,-0.117096 -6.0856867,-0.365088 11.4078868,7.402405 24.7023368,11.330435 38.2789238,11.313835 9.371965,0.10037 18.666457,-1.68179 27.341303,-5.23369 8.680408,-3.55181 16.569645,-8.807625 23.203048,-15.457609 6.633381,-6.655527 11.883671,-14.566907 15.441031,-23.280499 3.55735,-8.713592 5.34987,-18.04681 5.27793,-27.46854 0,-1.040062 0,-2.141058 0,-3.242011 4.77451,-3.579498 8.89616,-7.966708 12.17138,-12.962503 z"
       fill="#000000"
       id="path8"
       style="stroke-width:5.53243;fill:#ffffff;fill-opacity:1" />
  </g>
</svg>
