<svg width="1000" height="428" viewBox="0 0 1000 428" fill="none" xmlns="http://www.w3.org/2000/svg">
<rect width="1000" height="428" fill="#F5F5F5"/>
<rect width="1000" height="428" fill="white"/>
<path d="M430.742 360V350.877H433.804L434.262 347.322H430.742V345.052C430.742 344.022 431.027 343.321 432.504 343.321L434.386 343.32V340.14C433.475 340.044 432.559 339.997 431.643 340C428.929 340 427.07 341.657 427.07 344.7V347.322H424V350.877H427.07V360L430.742 360Z" fill="black"/>
<path d="M508 343.157C507.173 343.517 506.299 343.755 505.404 343.864C506.348 343.297 507.055 342.406 507.395 341.354C506.508 341.885 505.537 342.259 504.524 342.46C503.847 341.722 502.945 341.231 501.961 341.064C500.976 340.896 499.964 341.062 499.083 341.535C498.202 342.008 497.503 342.761 497.094 343.677C496.685 344.593 496.59 345.619 496.824 346.595C495.03 346.504 493.276 346.034 491.675 345.217C490.073 344.4 488.661 343.253 487.529 341.852C487.132 342.549 486.923 343.338 486.924 344.14C486.923 344.886 487.105 345.62 487.454 346.278C487.803 346.936 488.309 347.497 488.926 347.91C488.209 347.891 487.507 347.697 486.88 347.347V347.402C486.885 348.447 487.25 349.457 487.911 350.263C488.572 351.069 489.491 351.62 490.51 351.824C490.118 351.944 489.71 352.007 489.3 352.012C489.016 352.009 488.733 351.983 488.453 351.935C488.743 352.833 489.305 353.619 490.06 354.181C490.815 354.744 491.726 355.056 492.666 355.075C491.079 356.33 489.119 357.015 487.1 357.02C486.732 357.022 486.365 356.999 486 356.954C488.062 358.292 490.465 359.002 492.919 358.999C494.613 359.017 496.293 358.695 497.861 358.053C499.43 357.411 500.856 356.461 502.055 355.259C503.254 354.056 504.203 352.626 504.846 351.051C505.489 349.476 505.813 347.789 505.8 346.086C505.8 345.898 505.8 345.699 505.8 345.5C506.663 344.853 507.408 344.06 508 343.157V343.157Z" fill="black"/>
<path d="M585.994 347.344C586.052 345.678 585.683 344.025 584.919 342.538C584.401 341.928 583.682 341.516 582.888 341.374C579.601 341.081 576.302 340.96 573.002 341.014C569.715 340.958 566.427 341.074 563.152 341.363C562.505 341.479 561.905 341.778 561.428 342.224C560.365 343.19 560.247 344.842 560.129 346.238C559.957 348.749 559.957 351.268 560.129 353.779C560.163 354.565 560.281 355.345 560.483 356.106C560.625 356.694 560.913 357.237 561.321 357.688C561.802 358.158 562.416 358.474 563.081 358.596C565.627 358.906 568.193 359.034 570.758 358.98C574.892 359.038 578.518 358.98 582.805 358.654C583.487 358.54 584.118 358.223 584.612 357.747C584.943 357.421 585.19 357.022 585.333 356.583C585.755 355.306 585.962 353.97 585.947 352.627C585.994 351.975 585.994 348.042 585.994 347.344ZM570.333 353.325V346.122L577.325 349.741C575.364 350.811 572.778 352.022 570.333 353.325Z" fill="black"/>
<path d="M121.13 160.351C120.996 160.495 120.877 160.653 120.775 160.822C120.658 160.972 120.568 161.141 120.509 161.322C120.419 161.498 120.359 161.687 120.332 161.882C120.212 162.446 120.274 163.033 120.509 163.56C120.642 163.925 120.853 164.257 121.129 164.532C121.405 164.807 121.738 165.018 122.105 165.15C122.455 165.315 122.84 165.396 123.227 165.386C123.611 165.39 123.993 165.32 124.35 165.179C124.703 165.009 125.031 164.791 125.325 164.532C125.599 164.257 125.815 163.93 125.963 163.572C126.11 163.213 126.184 162.829 126.182 162.441C126.192 162.055 126.111 161.672 125.945 161.322C125.796 160.965 125.586 160.637 125.325 160.351C125.049 160.078 124.722 159.862 124.362 159.715C124.002 159.569 123.616 159.494 123.227 159.497C122.841 159.501 122.46 159.581 122.105 159.732C121.742 159.872 121.411 160.083 121.13 160.351ZM108.957 172.599C108.84 172.75 108.75 172.919 108.691 173.1C108.58 173.272 108.5 173.461 108.455 173.659C108.366 174.037 108.366 174.43 108.455 174.808L108.632 175.338L108.898 175.868L109.252 176.309C109.833 176.861 110.606 177.168 111.409 177.163C111.798 177.166 112.183 177.091 112.543 176.945C112.903 176.798 113.231 176.582 113.507 176.309C113.768 176.023 113.978 175.695 114.127 175.338C114.311 174.892 114.382 174.407 114.334 173.928C114.287 173.448 114.121 172.987 113.853 172.586C113.584 172.184 113.221 171.855 112.795 171.626C112.369 171.398 111.893 171.277 111.409 171.274C110.627 171.285 109.878 171.59 109.311 172.128L108.957 172.599ZM121.13 172.128C120.861 172.408 120.65 172.739 120.509 173.1C120.261 173.633 120.179 174.228 120.273 174.808L120.45 175.338C120.515 175.525 120.604 175.704 120.716 175.868C120.825 176.022 120.943 176.17 121.07 176.309C121.351 176.578 121.683 176.788 122.045 176.928C122.399 177.084 122.782 177.164 123.168 177.164C123.555 177.164 123.937 177.084 124.291 176.928C124.649 176.779 124.979 176.57 125.266 176.309C125.55 176.039 125.778 175.715 125.935 175.356C126.093 174.997 126.176 174.611 126.182 174.219C126.192 173.833 126.111 173.449 125.945 173.1C125.796 172.743 125.586 172.415 125.325 172.128C125.038 171.868 124.708 171.659 124.35 171.51C123.996 171.354 123.614 171.274 123.227 171.274C122.841 171.274 122.458 171.354 122.105 171.51C121.742 171.65 121.411 171.86 121.13 172.128ZM108.691 163.56C108.832 163.921 109.042 164.252 109.311 164.532C109.878 165.07 110.627 165.375 111.409 165.386C111.893 165.383 112.369 165.262 112.795 165.034C113.221 164.805 113.584 164.476 113.853 164.074C114.121 163.673 114.287 163.212 114.334 162.733C114.382 162.253 114.311 161.768 114.127 161.322C113.978 160.965 113.768 160.637 113.507 160.351C113.231 160.078 112.903 159.862 112.543 159.715C112.183 159.569 111.798 159.494 111.409 159.497C110.627 159.508 109.878 159.813 109.311 160.351C108.901 160.765 108.624 161.29 108.513 161.862C108.403 162.433 108.465 163.024 108.691 163.56ZM121.13 148.573C120.869 148.859 120.659 149.188 120.509 149.544C120.283 150.081 120.221 150.672 120.331 151.243C120.442 151.814 120.72 152.34 121.13 152.754C121.411 153.022 121.742 153.232 122.105 153.372C122.458 153.528 122.841 153.609 123.227 153.609C123.614 153.609 123.996 153.528 124.35 153.372C124.708 153.223 125.038 153.014 125.325 152.754C125.599 152.479 125.815 152.153 125.963 151.794C126.11 151.435 126.184 151.051 126.182 150.663C126.192 150.277 126.111 149.894 125.945 149.544C125.796 149.188 125.586 148.859 125.325 148.573C124.91 148.164 124.382 147.888 123.809 147.777C123.236 147.667 122.643 147.729 122.105 147.954C121.742 148.095 121.411 148.305 121.13 148.573ZM84.8182 150.663V174.219C84.8182 175 85.1295 175.749 85.6835 176.301C86.2376 176.853 86.9891 177.163 87.7727 177.163H99.5909C100.375 177.163 101.126 176.853 101.68 176.301C102.234 175.749 102.545 175 102.545 174.219V150.663C102.545 149.882 102.234 149.134 101.68 148.581C101.126 148.029 100.375 147.719 99.5909 147.719H87.7727C86.9891 147.719 86.2376 148.029 85.6835 148.581C85.1295 149.134 84.8182 149.882 84.8182 150.663ZM96.6364 153.608V171.274H90.7273V153.608H96.6364ZM73 144.774V180.108C73 182.451 73.9338 184.697 75.5961 186.354C77.2584 188.011 79.5129 188.941 81.8636 188.941H129.136C131.487 188.941 133.742 188.011 135.404 186.354C137.066 184.697 138 182.451 138 180.108V144.774C138 142.432 137.066 140.185 135.404 138.528C133.742 136.872 131.487 135.941 129.136 135.941H81.8636C79.5129 135.941 77.2584 136.872 75.5961 138.528C73.9338 140.185 73 142.432 73 144.774ZM129.136 141.83C129.92 141.83 130.671 142.14 131.226 142.692C131.78 143.245 132.091 143.994 132.091 144.774V180.108C132.091 180.889 131.78 181.638 131.226 182.19C130.671 182.742 129.92 183.052 129.136 183.052H81.8636C81.08 183.052 80.3285 182.742 79.7745 182.19C79.2204 181.638 78.9091 180.889 78.9091 180.108V144.774C78.9091 143.994 79.2204 143.245 79.7745 142.692C80.3285 142.14 81.08 141.83 81.8636 141.83H129.136ZM108.957 149.044C108.84 149.194 108.75 149.364 108.691 149.544C108.601 149.72 108.541 149.909 108.514 150.104C108.425 150.482 108.425 150.875 108.514 151.252L108.691 151.782L108.957 152.312L109.311 152.754C109.878 153.292 110.627 153.597 111.409 153.608C111.893 153.605 112.369 153.485 112.795 153.256C113.221 153.027 113.584 152.698 113.853 152.297C114.121 151.895 114.287 151.435 114.334 150.955C114.382 150.475 114.311 149.991 114.127 149.544C113.978 149.188 113.768 148.859 113.507 148.573C113.231 148.3 112.903 148.084 112.543 147.938C112.183 147.791 111.798 147.717 111.409 147.719C110.627 147.73 109.878 148.035 109.311 148.573L108.957 149.044Z" fill="#FF3343"/>
<path d="M85.0922 119.004C84.935 119.164 84.8109 119.353 84.727 119.561C84.6431 119.768 84.601 119.99 84.6031 120.214L84.7415 130.419C84.7454 130.643 84.7935 130.864 84.8831 131.069C84.9726 131.275 85.1018 131.46 85.2632 131.615C85.4228 131.773 85.6119 131.897 85.8196 131.981C86.0272 132.065 86.2494 132.107 86.4734 132.105L93.2844 132.012L119.59 131.655C119.814 131.652 120.035 131.603 120.24 131.514C120.445 131.424 120.631 131.295 120.786 131.134L125.819 125.962C126.134 125.639 126.308 125.204 126.302 124.752C126.295 124.301 126.11 123.87 125.787 123.556L120.615 118.523C120.454 118.347 120.257 118.208 120.038 118.113C119.819 118.019 119.583 117.971 119.344 117.974L93.1119 118.402L86.3481 118.422C86.1217 118.431 85.8986 118.479 85.688 118.563C85.5816 118.649 85.486 118.747 85.4031 118.856C85.3421 118.907 85.2865 118.964 85.2369 119.026L85.0922 119.004ZM118.741 121.449L122.193 124.808L118.834 128.26L94.935 128.584L94.8426 121.773L118.741 121.449ZM91.4492 121.819L91.5415 128.63L88.1358 128.664L88.0438 121.877L91.4492 121.819Z" fill="#FF3343"/>
<path d="M483.562 167.6H471.312C470.5 167.6 469.721 167.921 469.147 168.493C468.573 169.065 468.25 169.841 468.25 170.65C468.25 171.459 468.573 172.235 469.147 172.807C469.721 173.379 470.5 173.7 471.312 173.7H483.562C484.375 173.7 485.154 173.379 485.728 172.807C486.302 172.235 486.625 171.459 486.625 170.65C486.625 169.841 486.302 169.065 485.728 168.493C485.154 167.921 484.375 167.6 483.562 167.6ZM495.812 137.1H492.199C491.567 135.32 490.398 133.779 488.852 132.686C487.305 131.594 485.458 131.005 483.562 131H477.438C475.542 131.005 473.695 131.594 472.148 132.686C470.602 133.779 469.433 135.32 468.801 137.1H465.188C462.751 137.1 460.414 138.064 458.691 139.78C456.968 141.496 456 143.823 456 146.25V182.85C456 185.277 456.968 187.604 458.691 189.32C460.414 191.036 462.751 192 465.188 192H495.812C498.249 192 500.586 191.036 502.309 189.32C504.032 187.604 505 185.277 505 182.85V146.25C505 143.823 504.032 141.496 502.309 139.78C500.586 138.064 498.249 137.1 495.812 137.1V137.1ZM474.375 140.15C474.375 139.341 474.698 138.565 475.272 137.993C475.846 137.421 476.625 137.1 477.438 137.1H483.562C484.375 137.1 485.154 137.421 485.728 137.993C486.302 138.565 486.625 139.341 486.625 140.15V143.2H474.375V140.15ZM498.875 182.85C498.875 183.659 498.552 184.435 497.978 185.007C497.404 185.579 496.625 185.9 495.812 185.9H465.188C464.375 185.9 463.596 185.579 463.022 185.007C462.448 184.435 462.125 183.659 462.125 182.85V146.25C462.125 145.441 462.448 144.665 463.022 144.093C463.596 143.521 464.375 143.2 465.188 143.2H468.25V146.25C468.25 147.059 468.573 147.835 469.147 148.407C469.721 148.979 470.5 149.3 471.312 149.3H489.688C490.5 149.3 491.279 148.979 491.853 148.407C492.427 147.835 492.75 147.059 492.75 146.25V143.2H495.812C496.625 143.2 497.404 143.521 497.978 144.093C498.552 144.665 498.875 145.441 498.875 146.25V182.85ZM489.688 155.4H471.312C470.5 155.4 469.721 155.721 469.147 156.293C468.573 156.865 468.25 157.641 468.25 158.45C468.25 159.259 468.573 160.035 469.147 160.607C469.721 161.179 470.5 161.5 471.312 161.5H489.688C490.5 161.5 491.279 161.179 491.853 160.607C492.427 160.035 492.75 159.259 492.75 158.45C492.75 157.641 492.427 156.865 491.853 156.293C491.279 155.721 490.5 155.4 489.688 155.4Z" fill="black"/>
<path d="M882.247 143.516L870.446 131.61C870.25 131.415 870.017 131.261 869.761 131.156C869.504 131.051 869.23 130.998 868.953 131C868.401 131.002 867.872 131.221 867.481 131.61L837.612 161.374C837.22 161.768 837 162.301 837 162.857C837 163.412 837.22 163.946 837.612 164.34L849.517 176.245C849.714 176.44 849.947 176.594 850.203 176.699C850.459 176.804 850.734 176.857 851.011 176.855C851.562 176.853 852.091 176.634 852.483 176.245L858.436 170.292L876.294 152.434L882.247 146.481C882.639 146.087 882.859 145.554 882.859 144.998C882.859 144.443 882.639 143.91 882.247 143.516V143.516ZM874.801 147.975L873.307 146.481C872.913 146.09 872.38 145.87 871.824 145.87C871.269 145.87 870.735 146.09 870.341 146.481C870.144 146.677 869.988 146.91 869.881 147.166C869.774 147.422 869.719 147.697 869.719 147.975C869.719 148.253 869.774 148.527 869.881 148.784C869.988 149.04 870.144 149.273 870.341 149.468L871.835 150.962L868.848 153.928L864.389 149.468C863.986 149.124 863.469 148.944 862.939 148.964C862.41 148.985 861.908 149.204 861.533 149.579C861.158 149.953 860.939 150.455 860.918 150.985C860.898 151.514 861.078 152.032 861.423 152.434L865.882 156.893L862.895 159.88L861.423 158.387C861.027 157.991 860.489 157.768 859.929 157.768C859.369 157.768 858.832 157.991 858.436 158.387C858.04 158.783 857.817 159.32 857.817 159.88C857.817 160.441 858.04 160.978 858.436 161.374L859.929 162.846L856.963 165.833L852.483 161.374C852.089 160.982 851.556 160.762 851 160.762C850.444 160.762 849.911 160.982 849.517 161.374C849.125 161.768 848.906 162.301 848.906 162.857C848.906 163.412 849.125 163.946 849.517 164.34L853.976 168.799L851.011 171.786L842.071 162.846L868.848 136.069L877.788 145.009L874.801 147.975Z" fill="#FF3343"/>
<path d="M860.138 192H898C898.558 192 899.093 191.778 899.487 191.384C899.882 190.989 900.104 190.454 900.104 189.897V152.034C900.104 151.477 899.882 150.942 899.487 150.547C899.093 150.153 898.558 149.931 898 149.931H885.379C884.822 149.931 884.286 150.153 883.892 150.547C883.498 150.942 883.276 151.477 883.276 152.034V175.172H860.138C859.58 175.172 859.045 175.394 858.651 175.788C858.256 176.183 858.035 176.718 858.035 177.276V189.897C858.035 190.454 858.256 190.989 858.651 191.384C859.045 191.778 859.58 192 860.138 192V192ZM862.241 179.379H866.448V181.483C866.448 182.041 866.67 182.576 867.064 182.97C867.459 183.365 867.994 183.586 868.552 183.586C869.11 183.586 869.645 183.365 870.039 182.97C870.434 182.576 870.655 182.041 870.655 181.483V179.379H874.862V181.483C874.862 182.041 875.084 182.576 875.478 182.97C875.873 183.365 876.408 183.586 876.966 183.586C877.523 183.586 878.058 183.365 878.453 182.97C878.847 182.576 879.069 182.041 879.069 181.483V179.379H883.276V181.483C883.276 182.041 883.498 182.576 883.892 182.97C884.286 183.365 884.822 183.586 885.379 183.586C885.937 183.586 886.472 183.365 886.867 182.97C887.261 182.576 887.483 182.041 887.483 181.483V179.379H889.586C890.144 179.379 890.679 179.158 891.074 178.763C891.468 178.369 891.69 177.834 891.69 177.276C891.69 176.718 891.468 176.183 891.074 175.788C890.679 175.394 890.144 175.172 889.586 175.172H887.483V170.966H889.586C890.144 170.966 890.679 170.744 891.074 170.349C891.468 169.955 891.69 169.42 891.69 168.862C891.69 168.304 891.468 167.769 891.074 167.375C890.679 166.98 890.144 166.759 889.586 166.759H887.483V162.552H889.586C890.144 162.552 890.679 162.33 891.074 161.936C891.468 161.541 891.69 161.006 891.69 160.448C891.69 159.89 891.468 159.355 891.074 158.961C890.679 158.566 890.144 158.345 889.586 158.345H887.483V154.138H895.897V187.793H862.241V179.379Z" fill="#FF3343"/>
</svg>

